<svg xmlns="http://www.w3.org/2000/svg" width="74" height="74" viewBox="0 0 74 74" fill="none">
  <path d="M37.4314 47.0899C32.6377 47.0899 28.7379 43.1901 28.7379 38.3964C28.7379 33.6027 32.6377 29.7036 37.4314 29.7036C42.2251 29.7036 46.1249 33.6034 46.1249 38.3964C46.1249 43.1901 42.2251 47.0899 37.4314 47.0899ZM37.4314 31.4419C33.5967 31.4419 30.4769 34.5617 30.4769 38.3964C30.4769 42.2318 33.5967 45.3509 37.4314 45.3509C41.2661 45.3509 44.3859 42.2318 44.3859 38.3964C44.3859 34.5625 41.2661 31.4419 37.4314 31.4419Z" fill="white"/>
  <path d="M37.4314 26.3958C36.9511 26.3958 36.5619 26.0058 36.5619 25.5263V21.9032C36.5619 21.423 36.9511 21.0345 37.4314 21.0345C37.9109 21.0345 38.3009 21.423 38.3009 21.9032V25.5263C38.3009 26.0058 37.9109 26.3958 37.4314 26.3958Z" fill="white"/>
  <path d="M46.0835 30.8143C45.8608 30.8143 45.6388 30.7292 45.4686 30.5598C45.1289 30.2209 45.1289 29.6703 45.4686 29.3306L48.5832 26.216C48.9229 25.8771 49.4727 25.8771 49.8124 26.216C50.152 26.5556 50.152 27.1062 49.8124 27.4451L46.6977 30.5598C46.5282 30.7292 46.3062 30.8143 46.0835 30.8143Z" fill="white"/>
  <path d="M27.394 30.8143C27.1713 30.8143 26.9485 30.7292 26.7791 30.5598L23.6637 27.4451C23.3248 27.1062 23.3248 26.5556 23.6637 26.216C24.0033 25.8771 24.5539 25.8771 24.8928 26.216L28.0082 29.3306C28.3471 29.6703 28.3471 30.2216 28.0082 30.5598C27.8388 30.7292 27.616 30.8143 27.394 30.8143Z" fill="white"/>
  <path d="M36.7388 55.6265C36.2585 55.6265 35.8693 55.2373 35.8693 54.757V51.134C35.8693 50.6537 36.2585 50.2645 36.7388 50.2645C37.2183 50.2645 37.6075 50.6537 37.6075 51.134V54.757C37.6075 55.2373 37.2183 55.6265 36.7388 55.6265Z" fill="white"/>
  <path d="M24.9713 50.6996C24.7493 50.6996 24.5266 50.6145 24.3571 50.445C24.0174 50.1061 24.0174 49.5548 24.3571 49.2152L27.4718 46.1005C27.8114 45.7608 28.3612 45.7608 28.7009 46.1005C29.0406 46.4394 29.0406 46.99 28.7009 47.3296L25.5862 50.445C25.4168 50.6145 25.194 50.6996 24.9713 50.6996Z" fill="white"/>
  <path d="M49.8915 50.6996C49.6695 50.6996 49.4468 50.6145 49.2766 50.445L46.1619 47.3296C45.8223 46.99 45.8223 46.4402 46.1619 46.1005C46.5016 45.7608 47.0514 45.7608 47.391 46.1005L50.5057 49.2152C50.8454 49.5548 50.8454 50.1046 50.5057 50.445C50.3362 50.6145 50.1142 50.6996 49.8915 50.6996Z" fill="white"/>
  <path d="M24.2786 39.2659H20.367C19.8867 39.2659 19.4975 38.8766 19.4975 38.3964C19.4975 37.9168 19.8867 37.5269 20.367 37.5269H24.2786C24.7589 37.5269 25.1481 37.9161 25.1481 38.3964C25.1474 38.8766 24.7589 39.2659 24.2786 39.2659Z" fill="white"/>
  <path d="M53.835 39.2659H49.1981C48.7179 39.2659 48.3286 38.8766 48.3286 38.3964C48.3286 37.9168 48.7179 37.5269 49.1981 37.5269H53.835C54.3145 37.5269 54.7045 37.9161 54.7045 38.3964C54.7045 38.8766 54.3145 39.2659 53.835 39.2659Z" fill="white"/>
</svg>