<svg xmlns="http://www.w3.org/2000/svg" width="100" height="100" viewBox="0 0 100 100" fill="none">
  <path d="M52.34 62.744C45.861 62.744 40.592 57.475 40.592 50.997C40.592 44.519 45.862 39.25 52.34 39.25C58.817 39.25 64.086 44.52 64.086 50.997C64.086 57.476 58.816 62.744 52.34 62.744Z" fill="white"/>
  <path d="M52.34 34.779C51.69 34.779 51.164 34.252 51.164 33.604V28.708C51.164 28.059 51.689 27.533 52.34 27.533C52.988 27.533 53.514 28.058 53.514 28.708V33.604C53.514 34.252 52.988 34.779 52.34 34.779Z" fill="white"/>
  <path d="M64.031 40.75C63.73 40.75 63.429 40.636 63.201 40.406C62.742 39.948 62.742 39.205 63.201 38.745L67.41 34.535C67.869 34.078 68.611 34.078 69.07 34.535C69.529 34.993 69.529 35.738 69.07 36.198L64.861 40.406C64.633 40.636 64.332 40.75 64.031 40.75Z" fill="white"/>
  <path d="M38.773 40.75C38.474 40.75 38.173 40.636 37.943 40.406L33.734 36.198C33.275 35.738 33.275 34.994 33.734 34.535C34.193 34.078 34.935 34.078 35.394 34.535L39.605 38.745C40.064 39.205 40.064 39.947 39.605 40.406C39.375 40.636 39.074 40.75 38.773 40.75Z" fill="white"/>
  <path d="M51.402 74.28C50.754 74.28 50.228 73.754 50.228 73.105V68.21C50.228 67.563 50.753 67.035 51.402 67.035C52.051 67.035 52.578 67.562 52.578 68.21V73.106C52.578 73.754 52.051 74.28 51.402 74.28Z" fill="white"/>
  <path d="M35.502 67.622C35.201 67.622 34.9 67.508 34.67 67.278C34.211 66.82 34.211 66.076 34.67 65.617L38.879 61.408C39.338 60.95 40.082 60.95 40.541 61.408C41 61.865 41 62.61 40.541 63.069L36.332 67.278C36.102 67.508 35.803 67.622 35.502 67.622Z" fill="white"/>
  <path d="M69.178 67.622C68.877 67.622 68.576 67.508 68.346 67.278L64.137 63.069C63.678 62.61 63.678 61.867 64.137 61.408C64.596 60.95 65.34 60.95 65.799 61.408L70.008 65.617C70.467 66.076 70.467 66.819 70.008 67.278C69.777 67.508 69.479 67.622 69.178 67.622Z" fill="white"/>
  <path d="M34.564 52.172H29.277C28.629 52.172 28.103 51.647 28.103 50.997C28.103 50.347 28.628 49.822 29.277 49.822H34.564C35.212 49.822 35.74 50.347 35.74 50.997C35.74 51.647 35.213 52.172 34.564 52.172Z" fill="white"/>
  <path d="M74.506 52.172H68.24C67.592 52.172 67.066 51.647 67.066 50.997C67.066 50.347 67.591 49.822 68.24 49.822H74.506C75.154 49.822 75.68 50.347 75.68 50.997C75.68 51.647 75.154 52.172 74.506 52.172Z" fill="white"/>
</svg>