<svg xmlns="http://www.w3.org/2000/svg" width="100" height="100" viewBox="0 0 100 100" fill="none">
  <path d="M50.123 77.653C44.474 77.653 39.498 74.14 37.547 68.946C35.716 69.842 33.708 70.311 31.663 70.311C24.246 70.311 18.211 64.275 18.211 56.859C18.211 49.441 24.245 43.407 31.663 43.407C32.963 43.407 34.243 43.593 35.483 43.962C37.285 38.476 42.36 34.746 48.246 34.746C51.1 34.746 53.884 35.661 56.18 37.338C59.041 35.641 62.287 34.746 65.622 34.746C75.851 34.746 84.173 43.068 84.173 53.298C84.173 63.528 75.852 71.85 65.623 71.85C64.258 71.85 62.876 71.691 61.504 71.373C59.047 75.27 54.767 77.653 50.123 77.653ZM38.235 66.042C38.382 66.042 38.529 66.069 38.669 66.126C39.019 66.265 39.281 66.564 39.374 66.929C40.622 71.86 45.042 75.304 50.123 75.304C54.212 75.304 57.958 73.065 59.902 69.46C60.163 68.976 60.723 68.737 61.254 68.886C62.709 69.294 64.179 69.5 65.623 69.5C74.557 69.5 81.825 62.232 81.825 53.298C81.825 44.364 74.557 37.096 65.623 37.096C62.465 37.096 59.396 38.014 56.75 39.752C56.317 40.035 55.75 40.003 55.353 39.672C53.362 38.011 50.838 37.096 48.247 37.096C43.026 37.096 38.577 40.653 37.427 45.745C37.351 46.082 37.131 46.369 36.825 46.528C36.519 46.687 36.158 46.705 35.838 46.575C34.502 46.031 33.098 45.756 31.664 45.756C25.542 45.756 20.562 50.736 20.562 56.86C20.562 62.981 25.542 67.963 31.664 67.963C33.765 67.963 35.819 67.361 37.605 66.227C37.796 66.104 38.015 66.042 38.235 66.042Z" fill="white"/>
</svg>