<svg xmlns="http://www.w3.org/2000/svg" width="100" height="100" viewBox="0 0 100 100" fill="none">
  <path d="M41.601 27.502C42.25 27.502 42.776 26.977 42.776 26.327V21.432C42.776 20.784 42.251 20.257 41.601 20.257C40.953 20.257 40.426 20.783 40.426 21.432V26.327C40.426 26.977 40.952 27.502 41.601 27.502Z" fill="white"/>
  <path d="M53.293 33.475C53.594 33.475 53.895 33.36 54.123 33.13L58.332 28.92C58.791 28.461 58.791 27.718 58.332 27.259C57.874 26.8 57.131 26.8 56.672 27.259L52.463 31.469C52.004 31.928 52.004 32.672 52.463 33.13C52.691 33.359 52.992 33.475 53.293 33.475Z" fill="white"/>
  <path d="M27.205 33.13C27.435 33.359 27.735 33.475 28.036 33.475C28.337 33.475 28.637 33.36 28.867 33.13C29.326 32.672 29.326 31.928 28.867 31.469L24.657 27.259C24.198 26.8 23.455 26.8 22.996 27.259C22.537 27.718 22.537 28.461 22.996 28.92L27.205 33.13Z" fill="white"/>
  <path d="M25.001 43.72C25.001 43.073 24.475 42.545 23.826 42.545H18.54C17.892 42.545 17.365 43.072 17.365 43.72C17.365 44.368 17.891 44.895 18.54 44.895H23.826C24.475 44.895 25.001 44.368 25.001 43.72Z" fill="white"/>
  <path d="M66.548 38.65C63.213 38.65 59.967 39.543 57.106 41.241C55.688 40.206 54.083 39.463 52.391 39.045C50.204 33.99 44.674 31.012 39.098 32.233C32.77 33.62 28.75 39.896 30.137 46.223C30.233 46.659 30.363 47.077 30.506 47.488C24.076 48.495 19.137 54.055 19.137 60.761C19.137 68.179 25.172 74.213 32.589 74.213C34.634 74.213 36.641 73.745 38.473 72.851C40.424 78.044 45.399 81.556 51.049 81.556C55.693 81.556 59.973 79.171 62.429 75.278C63.801 75.592 65.183 75.754 66.548 75.754C76.777 75.754 85.1 67.432 85.1 57.202C85.1 46.972 76.777 38.65 66.548 38.65ZM39.6 34.528C43.552 33.662 47.469 35.439 49.529 38.664C49.41 38.662 49.292 38.65 49.173 38.65C43.288 38.65 38.212 42.379 36.41 47.867C35.287 47.532 34.13 47.355 32.956 47.323C32.741 46.811 32.556 46.282 32.433 45.719C31.322 40.659 34.539 35.638 39.6 34.528Z" fill="white"/>
</svg>