<svg xmlns="http://www.w3.org/2000/svg" width="100" height="100" viewBox="0 0 100 100" fill="none">
  <path d="M38.808 28.393C39.456 28.393 39.983 27.867 39.983 27.218V22.323C39.983 21.674 39.457 21.148 38.808 21.148C38.159 21.148 37.633 21.674 37.633 22.323V27.218C37.633 27.867 38.159 28.393 38.808 28.393Z" fill="white"/>
  <path d="M50.5 34.365C50.801 34.365 51.101 34.25 51.331 34.021L55.54 29.812C55.999 29.353 55.999 28.608 55.54 28.151C55.081 27.692 54.337 27.692 53.878 28.151L49.669 32.36C49.21 32.819 49.21 33.564 49.669 34.021C49.899 34.25 50.2 34.365 50.5 34.365Z" fill="white"/>
  <path d="M24.413 34.021C24.642 34.25 24.942 34.365 25.243 34.365C25.544 34.365 25.845 34.25 26.073 34.021C26.532 33.562 26.532 32.819 26.073 32.36L21.864 28.151C21.405 27.692 20.661 27.692 20.203 28.151C19.744 28.61 19.744 29.353 20.203 29.812L24.413 34.021Z" fill="white"/>
  <path d="M22.208 44.61C22.208 43.962 21.683 43.435 21.033 43.435H15.747C15.099 43.435 14.572 43.962 14.572 44.61C14.572 45.259 15.098 45.785 15.747 45.785H21.033C21.683 45.785 22.208 45.26 22.208 44.61Z" fill="white"/>
  <path d="M63.755 39.542C60.42 39.542 57.173 40.435 54.312 42.132C52.896 41.097 51.291 40.354 49.597 39.936C47.411 34.882 41.88 31.901 36.305 33.124C29.977 34.51 25.957 40.786 27.344 47.113C27.44 47.549 27.57 47.967 27.713 48.38C21.284 49.385 16.345 54.945 16.345 61.653C16.345 69.071 22.378 75.105 29.796 75.105C31.841 75.105 33.849 74.637 35.68 73.741C37.631 78.934 42.607 82.447 48.255 82.447C52.9 82.447 57.179 80.063 59.636 76.168C61.009 76.483 62.39 76.644 63.755 76.644C73.984 76.644 82.306 68.321 82.306 58.091C82.306 47.864 73.983 39.542 63.755 39.542ZM36.808 35.419C40.759 34.554 44.675 36.33 46.736 39.556C46.617 39.553 46.499 39.542 46.38 39.542C40.494 39.542 35.419 43.271 33.617 48.757C32.494 48.424 31.338 48.247 30.163 48.215C29.948 47.703 29.763 47.173 29.641 46.611C28.53 41.55 31.745 36.53 36.808 35.419ZM63.755 74.295C62.311 74.295 60.841 74.087 59.386 73.68C58.855 73.531 58.296 73.771 58.034 74.254C56.091 77.858 52.345 80.098 48.255 80.098C43.175 80.098 38.755 76.654 37.507 71.723C37.414 71.358 37.152 71.058 36.802 70.92C36.662 70.865 36.515 70.837 36.368 70.837C36.147 70.837 35.929 70.899 35.737 71.019C33.951 72.155 31.897 72.755 29.796 72.755C23.675 72.755 18.694 67.774 18.694 61.652C18.694 55.53 23.674 50.549 29.796 50.549C31.23 50.549 32.634 50.824 33.97 51.368C34.289 51.499 34.651 51.482 34.956 51.321C35.263 51.161 35.482 50.875 35.559 50.539C36.708 45.446 41.158 41.89 46.379 41.89C46.869 41.89 47.356 41.932 47.838 41.996C48.714 42.113 49.569 42.331 50.39 42.649C51.505 43.083 52.555 43.689 53.486 44.464C53.882 44.796 54.45 44.828 54.882 44.545C57.528 42.808 60.597 41.89 63.755 41.89C72.689 41.89 79.957 49.158 79.957 58.091C79.957 67.027 72.688 74.295 63.755 74.295Z" fill="white"/>
</svg>