<svg xmlns="http://www.w3.org/2000/svg" width="100" height="100" viewBox="0 0 100 100" fill="none">
  <path d="M52.665 74.544C47.016 74.544 42.04 71.033 40.089 65.838C38.257 66.734 36.25 67.202 34.205 67.202C26.788 67.202 20.753 61.168 20.753 53.75C20.753 46.332 26.788 40.298 34.205 40.298C35.505 40.298 36.785 40.486 38.025 40.855C39.827 35.368 44.902 31.638 50.788 31.638C53.642 31.638 56.427 32.553 58.722 34.23C61.583 32.532 64.829 31.638 68.164 31.638C78.393 31.638 86.716 39.961 86.716 50.191C86.716 60.42 78.394 68.741 68.164 68.741C66.799 68.741 65.418 68.582 64.045 68.266C61.588 72.16 57.309 74.544 52.665 74.544Z" fill="white"/>
</svg>