<svg xmlns="http://www.w3.org/2000/svg" width="100" height="100" viewBox="0 0 100 100" fill="none">
  <path d="M86.694 34.759C86.694 27.625 80.889 21.819 73.754 21.819C71.582 21.819 69.443 22.37 67.541 23.414C65.982 22.384 64.123 21.819 62.257 21.819C58.326 21.819 54.841 24.193 53.395 27.786C52.704 27.629 51.997 27.55 51.286 27.55C46.011 27.55 41.72 31.842 41.72 37.116C41.72 37.811 41.799 38.488 41.941 39.14C39.349 40.766 37.34 43.265 36.341 46.307C35.101 45.938 33.821 45.749 32.521 45.749C25.104 45.749 19.069 51.784 19.069 59.202C19.069 66.619 25.103 72.653 32.521 72.653C34.566 72.653 36.573 72.185 38.405 71.291C40.356 76.484 45.331 79.996 50.981 79.996C55.625 79.996 59.905 77.612 62.361 73.719C63.734 74.032 65.115 74.194 66.48 74.194C76.709 74.194 85.031 65.872 85.031 55.642C85.031 51.679 83.771 48.01 81.645 44.993C84.709 42.623 86.694 38.924 86.694 34.759ZM82.682 55.642C82.682 64.576 75.413 71.844 66.48 71.844C65.036 71.844 63.565 71.638 62.111 71.229C61.58 71.082 61.021 71.321 60.759 71.803C58.816 75.407 55.069 77.647 50.98 77.647C45.899 77.647 41.479 74.203 40.231 69.272C40.139 68.908 39.877 68.609 39.526 68.469C39.386 68.414 39.239 68.386 39.092 68.386C38.872 68.386 38.653 68.449 38.462 68.57C36.676 69.706 34.622 70.305 32.521 70.305C26.399 70.305 21.419 65.325 21.419 59.202C21.419 53.079 26.399 48.098 32.521 48.098C33.955 48.098 35.358 48.373 36.695 48.917C37.014 49.048 37.376 49.032 37.682 48.871C37.988 48.711 38.208 48.425 38.284 48.089C38.916 45.287 40.55 42.957 42.757 41.421C43.544 40.874 44.403 40.426 45.318 40.097C46.503 39.671 47.779 39.439 49.105 39.439C51.696 39.439 54.22 40.355 56.211 42.014C56.607 42.346 57.175 42.378 57.608 42.094C60.254 40.357 63.322 39.439 66.481 39.439C70.844 39.439 74.803 41.181 77.718 43.997C78.435 44.687 79.084 45.445 79.664 46.259C81.556 48.909 82.682 52.144 82.682 55.642ZM66.48 37.091C63.145 37.091 59.898 37.984 57.037 39.681C54.742 38.006 51.957 37.091 49.104 37.091C47.545 37.091 46.047 37.359 44.648 37.845C44.622 37.605 44.606 37.363 44.606 37.116C44.606 33.432 47.602 30.436 51.286 30.436C52.147 30.436 52.992 30.602 53.796 30.928C53.97 30.999 54.153 31.035 54.34 31.035C54.572 31.035 54.803 30.978 55.007 30.871C55.383 30.675 55.653 30.324 55.748 29.91C56.439 26.846 59.116 24.705 62.257 24.705C63.815 24.705 65.334 25.256 66.531 26.254C66.79 26.471 67.119 26.59 67.457 26.59C67.738 26.59 68.011 26.509 68.249 26.354C69.891 25.276 71.795 24.706 73.754 24.706C79.297 24.706 83.808 29.217 83.808 34.76C83.808 38.03 82.232 40.933 79.808 42.769C76.432 39.274 71.71 37.091 66.48 37.091Z" fill="white"/>
</svg>