<svg xmlns="http://www.w3.org/2000/svg" width="100" height="100" viewBox="0 0 100 100" fill="none">
  <path d="M79.381 35.222C79.381 28.086 73.576 22.282 66.441 22.282C64.269 22.282 62.13 22.831 60.229 23.875C58.67 22.844 56.811 22.282 54.945 22.282C51.015 22.282 47.529 24.654 46.084 28.247C45.393 28.09 44.686 28.011 43.974 28.011C38.699 28.011 34.408 32.303 34.408 37.577C34.408 38.272 34.487 38.948 34.628 39.602C32.036 41.226 30.027 43.725 29.028 46.767C27.788 46.398 26.508 46.212 25.208 46.212C17.791 46.212 11.756 52.246 11.756 59.664C11.756 67.082 17.791 73.116 25.208 73.116C27.253 73.116 29.261 72.648 31.092 71.751C33.043 76.945 38.018 80.458 43.668 80.458C48.312 80.458 52.591 78.074 55.048 74.178C56.421 74.495 57.801 74.655 59.167 74.655C69.396 74.655 77.719 66.332 77.719 56.103C77.719 52.14 76.459 48.471 74.333 45.453C77.396 43.084 79.381 39.384 79.381 35.222Z" fill="white"/>
</svg>