<svg xmlns="http://www.w3.org/2000/svg" width="100" height="100" viewBox="0 0 100 100" fill="none">
  <path d="M36.154 74.275C36.154 76.14 34.64 77.652 32.775 77.652C30.91 77.652 29.398 76.14 29.398 74.275C29.398 72.41 32.775 67.374 32.775 67.374C32.775 67.374 36.154 72.41 36.154 74.275Z" fill="white"/>
  <path d="M50.691 84.553C50.691 86.419 49.179 87.931 47.312 87.931C45.447 87.931 43.935 86.419 43.935 84.553C43.935 82.688 47.312 77.652 47.312 77.652C47.312 77.652 50.691 82.688 50.691 84.553Z" fill="white"/>
  <path d="M64.494 81.03C64.494 82.895 62.982 84.407 61.117 84.407C59.252 84.407 57.738 82.895 57.738 81.03C57.738 79.165 61.117 74.128 61.117 74.128C61.117 74.128 64.494 79.165 64.494 81.03Z" fill="white"/>
  <path d="M49.328 67.374C43.678 67.374 38.703 63.861 36.752 58.667C34.92 59.563 32.912 60.031 30.867 60.031C23.451 60.031 17.416 53.997 17.416 46.579C17.416 39.161 23.451 33.127 30.867 33.127C32.168 33.127 33.447 33.315 34.687 33.684C36.49 28.197 41.564 24.469 47.451 24.469C50.305 24.469 53.09 25.383 55.385 27.059C58.246 25.361 61.492 24.469 64.826 24.469C75.056 24.469 83.379 32.791 83.379 43.019C83.379 53.248 75.057 61.572 64.826 61.572C63.461 61.572 62.08 61.411 60.707 61.095C58.25 64.989 53.971 67.374 49.328 67.374ZM37.439 55.763C37.585 55.763 37.734 55.79 37.873 55.846C38.223 55.985 38.486 56.284 38.578 56.649C39.826 61.58 44.246 65.024 49.328 65.024C53.416 65.024 57.162 62.785 59.105 59.18C59.367 58.697 59.927 58.457 60.457 58.606C61.912 59.013 63.383 59.221 64.826 59.221C73.76 59.221 81.029 51.952 81.029 43.018C81.029 34.084 73.759 26.817 64.826 26.817C61.668 26.817 58.599 27.735 55.955 29.472C55.521 29.755 54.953 29.723 54.557 29.392C52.567 27.732 50.043 26.817 47.452 26.817C42.231 26.817 37.78 30.374 36.632 35.466C36.556 35.802 36.335 36.089 36.028 36.249C35.723 36.409 35.362 36.427 35.042 36.296C33.706 35.752 32.302 35.477 30.868 35.477C24.747 35.477 19.766 40.458 19.766 46.58C19.766 52.702 24.746 57.683 30.868 57.683C32.97 57.683 35.024 57.083 36.809 55.948C37 55.826 37.219 55.763 37.439 55.763Z" fill="white"/>
</svg>