<svg xmlns="http://www.w3.org/2000/svg" width="100" height="100" viewBox="0 0 100 100" fill="none">
  <path d="M38.09 71.167C38.09 73.032 36.578 74.544 34.713 74.544C32.848 74.544 31.336 73.032 31.336 71.167C31.336 69.302 34.713 64.266 34.713 64.266C34.713 64.266 38.09 69.302 38.09 71.167Z" fill="white"/>
  <path d="M52.627 81.445C52.627 83.311 51.115 84.823 49.25 84.823C47.384 84.823 45.873 83.311 45.873 81.445C45.873 79.58 49.25 74.544 49.25 74.544C49.25 74.544 52.627 79.58 52.627 81.445Z" fill="white"/>
  <path d="M66.431 77.922C66.431 79.787 64.919 81.299 63.054 81.299C61.189 81.299 59.677 79.787 59.677 77.922C59.677 76.057 63.054 71.02 63.054 71.02C63.054 71.02 66.431 76.057 66.431 77.922Z" fill="white"/>
  <path d="M51.264 64.266C45.615 64.266 40.639 60.753 38.688 55.558C36.856 56.454 34.849 56.923 32.804 56.923C25.387 56.923 19.352 50.888 19.352 43.471C19.352 36.053 25.386 30.019 32.804 30.019C34.104 30.019 35.384 30.206 36.624 30.575C38.426 25.089 43.501 21.359 49.387 21.359C52.241 21.359 55.026 22.273 57.321 23.951C60.182 22.253 63.429 21.359 66.764 21.359C76.993 21.359 85.315 29.681 85.315 39.911C85.315 50.141 76.993 58.463 66.764 58.463C65.399 58.463 64.017 58.303 62.645 57.986C60.188 61.881 55.908 64.266 51.264 64.266Z" fill="white"/>
</svg>