<svg xmlns="http://www.w3.org/2000/svg" width="100" height="100" viewBox="0 0 100 100" fill="none">
  <path d="M65.424 25.694C62.089 25.694 58.842 26.588 55.981 28.286C53.686 26.61 50.901 25.694 48.047 25.694C42.162 25.694 37.086 29.424 35.284 34.911C34.044 34.541 32.764 34.354 31.464 34.354C24.047 34.354 18.012 40.388 18.012 47.806C18.012 52.471 20.401 56.586 24.017 59C26.151 60.424 28.711 61.258 31.463 61.258C33.508 61.258 35.515 60.789 37.347 59.894C37.453 60.177 37.573 60.453 37.696 60.726C39.174 63.978 41.873 66.473 45.152 67.719C45.351 67.794 45.559 67.854 45.762 67.921L42.329 73.781L46.147 76.425L42.329 86.704L53.195 77.086L47.762 73.781L53.195 68.167L53.193 68.16C55.749 67.517 58.059 66.15 59.839 64.2C60.372 63.617 60.874 63.001 61.303 62.321C61.624 62.394 61.947 62.431 62.268 62.488C63.321 62.673 64.376 62.796 65.422 62.796C75.651 62.796 83.973 54.475 83.973 44.246C83.975 34.017 75.653 25.694 65.424 25.694ZM76.122 56.382C73.265 58.903 69.525 60.447 65.424 60.447C65.308 60.447 65.191 60.438 65.074 60.435C64.832 60.43 64.59 60.426 64.347 60.409C63.416 60.344 62.48 60.185 61.548 59.954C61.383 59.914 61.219 59.88 61.055 59.834C60.524 59.686 59.965 59.925 59.703 60.407C59.324 61.11 58.858 61.744 58.352 62.338C56.266 64.782 53.215 66.251 49.924 66.251C44.953 66.251 40.623 62.95 39.268 58.19C39.238 58.085 39.202 57.983 39.174 57.877C39.082 57.512 38.82 57.212 38.47 57.073C38.33 57.017 38.182 56.989 38.036 56.989C37.815 56.989 37.597 57.052 37.406 57.173C35.619 58.31 33.566 58.909 31.465 58.909C29.268 58.909 27.225 58.26 25.5 57.155C23.075 55.601 21.292 53.137 20.641 50.242C20.464 49.457 20.364 48.643 20.364 47.806C20.364 41.683 25.344 36.703 31.466 36.703C32.899 36.703 34.303 36.978 35.64 37.521C35.959 37.651 36.32 37.635 36.627 37.474C36.933 37.315 37.153 37.029 37.229 36.692C38.378 31.599 42.828 28.042 48.049 28.042C50.641 28.042 53.165 28.958 55.155 30.618C55.552 30.949 56.119 30.981 56.552 30.698C59.198 28.961 62.266 28.042 65.425 28.042C74.359 28.042 81.627 35.311 81.627 44.246C81.625 49.079 79.488 53.41 76.122 56.382Z" fill="white"/>
</svg>