<svg xmlns="http://www.w3.org/2000/svg" width="100" height="100" viewBox="0 0 100 100" fill="none">
  <path d="M67.697 22.585C64.362 22.585 61.115 23.478 58.254 25.175C55.959 23.5 53.174 22.585 50.32 22.585C44.435 22.585 39.359 26.314 37.557 31.802C36.317 31.433 35.037 31.244 33.737 31.244C26.32 31.244 20.285 37.278 20.285 44.696C20.285 49.363 22.674 53.476 26.29 55.89C28.424 57.315 30.984 58.148 33.736 58.148C35.781 58.148 37.788 57.68 39.62 56.785C39.726 57.067 39.846 57.343 39.97 57.616C41.448 60.869 44.147 63.363 47.425 64.609C47.625 64.685 47.832 64.745 48.035 64.811L44.602 70.673L48.42 73.316L44.602 83.595L55.468 73.977L50.035 70.673L55.468 65.059L55.466 65.05C58.022 64.409 60.332 63.041 62.112 61.091C62.645 60.508 63.147 59.891 63.576 59.212C63.897 59.285 64.22 59.322 64.541 59.378C65.594 59.563 66.649 59.687 67.695 59.687C77.924 59.687 86.246 51.366 86.246 41.136C86.246 30.906 77.926 22.585 67.697 22.585Z" fill="white"/>
</svg>