<svg xmlns="http://www.w3.org/2000/svg" width="100" height="100" viewBox="0 0 100 100" fill="none">
  <path d="M58.807 76.026L57.162 74.72C57.516 73.953 57.719 73.105 57.719 72.207C57.719 71.338 57.53 70.517 57.198 69.769L58.878 68.371C59.574 67.793 59.669 66.758 59.09 66.062C58.51 65.368 57.477 65.271 56.781 65.851L55.1 67.248C54.571 66.886 53.98 66.609 53.348 66.429V64.232C53.348 63.326 52.615 62.591 51.709 62.591C50.803 62.591 50.07 63.325 50.07 64.232V66.429C49.466 66.602 48.9 66.862 48.389 67.201L46.649 65.821C45.94 65.258 44.909 65.377 44.346 66.085C43.784 66.795 43.902 67.826 44.611 68.389L46.256 69.695C45.902 70.46 45.698 71.31 45.698 72.207C45.698 72.912 45.826 73.585 46.049 74.213L44.305 75.665C43.609 76.242 43.514 77.275 44.093 77.971C44.418 78.363 44.884 78.563 45.355 78.563C45.724 78.563 46.096 78.438 46.402 78.184L47.953 76.894C48.57 77.389 49.287 77.762 50.069 77.985V80.184C50.069 81.089 50.802 81.824 51.708 81.824C52.614 81.824 53.347 81.09 53.347 80.184V77.985C53.951 77.814 54.518 77.554 55.028 77.213L56.768 78.595C57.07 78.833 57.429 78.949 57.786 78.949C58.27 78.949 58.748 78.737 59.072 78.33C59.635 77.621 59.516 76.59 58.807 76.026ZM49.611 73.935C49.552 73.808 49.482 73.684 49.388 73.57C49.367 73.546 49.341 73.527 49.32 73.504C49.11 73.117 48.979 72.68 48.979 72.209C48.979 71.591 49.193 71.025 49.542 70.566C49.612 70.504 49.682 70.442 49.741 70.368C49.772 70.329 49.793 70.287 49.82 70.245C50.312 69.772 50.977 69.477 51.711 69.477C53.218 69.477 54.443 70.703 54.443 72.208C54.443 72.81 54.242 73.362 53.911 73.813C53.828 73.883 53.751 73.96 53.681 74.05C53.651 74.088 53.63 74.13 53.604 74.172C53.112 74.645 52.446 74.941 51.711 74.941C50.862 74.941 50.112 74.544 49.611 73.935Z" fill="white"/>
  <path d="M76.244 71.188L75.245 70.394C75.46 69.928 75.583 69.414 75.583 68.869C75.583 68.341 75.468 67.841 75.266 67.389L76.286 66.54C76.709 66.187 76.766 65.561 76.415 65.138C76.063 64.716 75.436 64.658 75.013 65.01L73.992 65.859C73.672 65.639 73.312 65.471 72.929 65.361V64.026C72.929 63.476 72.483 63.03 71.934 63.03C71.385 63.03 70.939 63.476 70.939 64.026V65.361C70.572 65.465 70.229 65.624 69.918 65.829L68.862 64.992C68.431 64.65 67.805 64.723 67.464 65.152C67.123 65.584 67.194 66.209 67.625 66.552L68.625 67.343C68.409 67.808 68.287 68.322 68.287 68.869C68.287 69.296 68.364 69.705 68.499 70.087L67.44 70.968C67.018 71.32 66.96 71.946 67.312 72.367C67.509 72.605 67.792 72.727 68.078 72.727C68.302 72.727 68.528 72.652 68.714 72.496L69.656 71.714C70.031 72.015 70.466 72.241 70.94 72.377V73.712C70.94 74.262 71.386 74.708 71.935 74.708C72.484 74.708 72.93 74.262 72.93 73.712V72.377C73.297 72.272 73.641 72.114 73.951 71.909L75.008 72.746C75.191 72.891 75.409 72.962 75.626 72.962C75.92 72.962 76.21 72.833 76.407 72.586C76.746 72.153 76.674 71.527 76.244 71.188ZM70.66 69.916C70.624 69.838 70.582 69.763 70.525 69.693C70.512 69.678 70.496 69.669 70.483 69.652C70.356 69.418 70.276 69.153 70.276 68.868C70.276 68.491 70.406 68.148 70.617 67.87C70.659 67.833 70.702 67.796 70.738 67.75C70.757 67.726 70.769 67.7 70.785 67.676C71.084 67.388 71.488 67.209 71.933 67.209C72.848 67.209 73.592 67.952 73.592 68.868C73.592 69.232 73.47 69.567 73.269 69.843C73.219 69.884 73.171 69.933 73.129 69.986C73.111 70.009 73.098 70.036 73.082 70.06C72.783 70.348 72.379 70.527 71.933 70.527C71.419 70.526 70.964 70.286 70.66 69.916Z" fill="white"/>
  <path d="M37.624 67.911L36.625 67.118C36.84 66.653 36.963 66.138 36.963 65.593C36.963 65.065 36.848 64.566 36.646 64.112L37.666 63.263C38.089 62.911 38.147 62.284 37.795 61.861C37.443 61.439 36.816 61.382 36.393 61.733L35.372 62.583C35.052 62.361 34.692 62.194 34.309 62.086V60.75C34.309 60.199 33.864 59.754 33.314 59.754C32.765 59.754 32.319 60.199 32.319 60.75V62.085C31.952 62.189 31.609 62.347 31.298 62.554L30.242 61.715C29.811 61.374 29.186 61.446 28.844 61.876C28.503 62.306 28.574 62.932 29.005 63.274L30.005 64.066C29.789 64.531 29.667 65.047 29.667 65.592C29.667 66.02 29.744 66.428 29.88 66.81L28.821 67.69C28.399 68.042 28.341 68.67 28.693 69.092C28.89 69.328 29.173 69.449 29.459 69.449C29.683 69.449 29.909 69.375 30.095 69.22L31.037 68.436C31.412 68.739 31.847 68.964 32.321 69.099V70.434C32.321 70.985 32.767 71.431 33.316 71.431C33.866 71.431 34.311 70.985 34.311 70.434V69.1C34.678 68.996 35.022 68.838 35.332 68.632L36.389 69.47C36.572 69.616 36.79 69.685 37.007 69.685C37.301 69.685 37.591 69.556 37.788 69.309C38.126 68.879 38.055 68.253 37.624 67.911ZM32.04 66.64C32.004 66.564 31.962 66.489 31.905 66.42C31.892 66.403 31.876 66.392 31.863 66.378C31.736 66.144 31.656 65.878 31.656 65.593C31.656 65.216 31.786 64.873 31.997 64.596C32.039 64.557 32.082 64.52 32.118 64.474C32.137 64.452 32.15 64.425 32.165 64.401C32.464 64.113 32.868 63.934 33.313 63.934C34.228 63.934 34.972 64.678 34.972 65.593C34.972 65.958 34.849 66.293 34.649 66.567C34.599 66.609 34.551 66.658 34.509 66.712C34.49 66.735 34.478 66.76 34.462 66.785C34.163 67.073 33.759 67.254 33.313 67.254C32.799 67.253 32.345 67.011 32.04 66.64Z" fill="white"/>
  <path d="M52.472 62.896C46.823 62.896 41.847 59.383 39.896 54.19C38.064 55.086 36.057 55.554 34.012 55.554C26.595 55.554 20.56 49.519 20.56 42.102C20.56 34.684 26.594 28.65 34.012 28.65C35.312 28.65 36.592 28.837 37.832 29.206C39.634 23.719 44.71 19.991 50.595 19.991C53.449 19.991 56.234 20.905 58.529 22.581C61.39 20.884 64.637 19.991 67.972 19.991C78.201 19.991 86.523 28.312 86.523 38.541C86.523 48.77 78.201 57.094 67.972 57.094C66.607 57.094 65.225 56.934 63.853 56.617C61.396 60.512 57.116 62.896 52.472 62.896ZM40.584 51.286C40.73 51.286 40.878 51.313 41.018 51.368C41.368 51.507 41.63 51.806 41.723 52.171C42.971 57.102 47.391 60.546 52.472 60.546C56.561 60.546 60.307 58.307 62.251 54.702C62.512 54.219 63.072 53.979 63.603 54.128C65.058 54.536 66.528 54.743 67.972 54.743C76.906 54.743 84.174 47.474 84.174 38.54C84.174 29.606 76.906 22.339 67.972 22.339C64.814 22.339 61.745 23.257 59.099 24.994C58.666 25.277 58.099 25.245 57.702 24.914C55.711 23.254 53.187 22.339 50.596 22.339C45.375 22.339 40.926 25.896 39.776 30.988C39.7 31.324 39.48 31.611 39.174 31.77C38.867 31.93 38.506 31.948 38.187 31.817C36.851 31.273 35.446 30.998 34.013 30.998C27.891 30.998 22.911 35.979 22.911 42.102C22.911 48.223 27.891 53.205 34.013 53.205C36.114 53.205 38.168 52.604 39.954 51.469C40.145 51.348 40.364 51.286 40.584 51.286Z" fill="white"/>
</svg>