<svg xmlns="http://www.w3.org/2000/svg" width="100" height="100" viewBox="0 0 100 100" fill="none">
  <path d="M68.56 53.313H34.223C33.755 53.313 33.375 52.787 33.375 52.138C33.375 51.489 33.755 50.963 34.223 50.963H68.56C69.028 50.963 69.408 51.488 69.408 52.138C69.408 52.786 69.028 53.313 68.56 53.313Z" fill="white"/>
  <path d="M68.56 47.046H34.223C33.755 47.046 33.375 46.521 33.375 45.871C33.375 45.223 33.755 44.696 34.223 44.696H68.56C69.028 44.696 69.408 45.222 69.408 45.871C69.407 46.521 69.028 47.046 68.56 47.046Z" fill="white"/>
  <path d="M68.56 60.36H34.223C33.755 60.36 33.375 59.834 33.375 59.186C33.375 58.537 33.755 58.011 34.223 58.011H68.56C69.028 58.011 69.408 58.536 69.408 59.186C69.407 59.834 69.028 60.36 68.56 60.36Z" fill="white"/>
  <path d="M68.56 67.703H34.223C33.755 67.703 33.375 67.177 33.375 66.528C33.375 65.879 33.755 65.353 34.223 65.353H68.56C69.028 65.353 69.408 65.878 69.408 66.528C69.407 67.177 69.028 67.703 68.56 67.703Z" fill="white"/>
</svg>