<svg xmlns="http://www.w3.org/2000/svg" width="100" height="100" viewBox="0 0 100 100" fill="none">
  <path d="M35.58 51.964H21.35C21.156 51.964 20.998 51.438 20.998 50.789C20.998 50.14 21.155 49.614 21.35 49.614H35.58C35.774 49.614 35.932 50.139 35.932 50.789C35.932 51.438 35.774 51.964 35.58 51.964Z" fill="white"/>
  <path d="M34.982 59.013H17.814C17.581 59.013 17.389 58.487 17.389 57.838C17.389 57.189 17.58 56.663 17.814 56.663H34.982C35.215 56.663 35.406 57.188 35.406 57.838C35.406 58.487 35.216 59.013 34.982 59.013Z" fill="white"/>
  <path d="M35.067 66.355H21.337C21.149 66.355 20.998 65.829 20.998 65.18C20.998 64.531 21.149 64.005 21.337 64.005H35.067C35.255 64.005 35.406 64.53 35.406 65.18C35.406 65.829 35.255 66.355 35.067 66.355Z" fill="white"/>
  <path d="M70.066 41.339C67.893 41.339 65.754 41.89 63.853 42.934C62.295 41.904 60.435 41.339 58.569 41.339C54.639 41.339 51.153 43.712 49.708 47.306C49.017 47.149 48.31 47.07 47.599 47.07C42.324 47.07 38.033 51.361 38.033 56.636C38.033 61.91 42.324 66.201 47.599 66.201C48.805 66.201 50.017 65.966 51.14 65.517C52.689 68.859 56.089 71.059 59.812 71.059C62.959 71.059 65.855 69.544 67.646 66.983C68.455 67.14 69.267 67.219 70.067 67.219C77.203 67.219 83.007 61.414 83.007 54.279C83.007 47.145 77.202 41.339 70.066 41.339ZM70.066 64.333C69.172 64.333 68.26 64.205 67.354 63.951C67.227 63.916 67.096 63.897 66.965 63.897C66.434 63.897 65.946 64.188 65.695 64.656C64.525 66.825 62.269 68.173 59.81 68.173C56.753 68.173 54.095 66.102 53.343 63.136C53.231 62.687 52.907 62.319 52.482 62.149C52.312 62.081 52.13 62.046 51.945 62.046C51.67 62.046 51.402 62.124 51.171 62.271C50.097 62.955 48.861 63.315 47.598 63.315C43.914 63.315 40.918 60.319 40.918 56.636C40.918 52.952 43.914 49.955 47.598 49.955C48.459 49.955 49.304 50.121 50.108 50.447C50.282 50.518 50.465 50.555 50.653 50.555C50.885 50.555 51.116 50.497 51.32 50.391C51.696 50.195 51.966 49.843 52.061 49.429C52.752 46.365 55.428 44.224 58.569 44.224C60.128 44.224 61.646 44.775 62.844 45.773C63.103 45.99 63.432 46.109 63.77 46.109C64.051 46.109 64.323 46.028 64.561 45.873C66.204 44.795 68.107 44.225 70.066 44.225C75.61 44.225 80.12 48.736 80.12 54.28C80.12 59.824 75.61 64.333 70.066 64.333Z" fill="white"/>
</svg>